<?xml version="1.0" encoding="UTF-8" standalone="no"?>
<svg width="64px" height="100px" viewBox="0 0 64 100" version="1.1" xmlns="http://www.w3.org/2000/svg" xmlns:xlink="http://www.w3.org/1999/xlink" xmlns:sketch="http://www.bohemiancoding.com/sketch/ns">
    <!-- Generator: Sketch 3.1 (8751) - http://www.bohemiancoding.com/sketch -->
    <title>cake</title>
    <desc>Created with Sketch.</desc>
    <defs></defs>
    <g id="Page-1" stroke="none" stroke-width="1" fill="none" fill-rule="evenodd" sketch:type="MSPage">
        <g id="cake" sketch:type="MSLayerGroup" fill="#FF421F">
            <path d="M45.77,33.185 C44.299,33.302 42.858,33.446 41.426,33.601 L41.426,45.413 C41.426,48.228 39.021,51.258 33.741,51.258 C28.463,51.258 26.058,48.228 26.058,45.413 L26.058,36.022 C18.308,37.686 11.446,39.901 5.783,42.546 C3.688,43.524 1.75,44.559 0,45.652 L0,84.567 L63.261,100 L63.261,60.503 L45.77,33.185 L45.77,33.185 Z M57.475,92.656 L5.783,80.039 L5.783,68.396 L57.475,81.239 L57.475,92.656 L57.475,92.656 Z M57.475,75.279 L5.812,62.437 L5.782,50.793 L57.474,63.654 L57.474,75.279 L57.475,75.279 Z" id="Shape" sketch:type="MSShapeGroup"></path>
            <path d="M33.741,46.579 C35.403,46.579 36.749,46.057 36.749,45.412 L36.749,17.562 C36.749,17.149 35.403,16.814 33.741,16.814 C32.081,16.814 30.735,17.149 30.735,17.562 L30.735,45.411 C30.735,46.057 32.081,46.579 33.741,46.579 L33.741,46.579 Z" id="Shape" sketch:type="MSShapeGroup"></path>
            <path d="M37.416,8.574 C37.416,10.604 35.77,12.248 33.742,12.248 C31.713,12.248 30.067,10.603 30.067,8.574 C30.067,6.544 31.712,0 33.742,0 C35.771,0 37.416,6.544 37.416,8.574 L37.416,8.574 Z" id="Shape" sketch:type="MSShapeGroup"></path>
        </g>
    </g>
</svg>